<svg width="154" height="154" viewBox="0 0 154 154" fill="none" xmlns="http://www.w3.org/2000/svg">
<path d="M134.728 99.3476C14.365 99.3476 14.332 99.527 14.332 99.0501C14.332 98.5731 14.3374 98.7526 134.728 98.7526C134.807 98.7526 134.883 98.784 134.939 98.84C134.966 98.8674 134.988 98.9001 135.004 98.9362C135.019 98.9723 135.026 99.011 135.026 99.0501C135.026 99.0891 135.019 99.1278 135.004 99.1639C134.988 99.2 134.966 99.2327 134.939 99.2601C134.911 99.2879 134.878 99.3099 134.842 99.3249C134.806 99.3399 134.768 99.3476 134.728 99.3476Z" fill="#4B1010"/>
<path d="M19.7289 103.173H66.9016C63.5869 114.987 61.207 127.056 58.6567 139.041H3.83496C9.01972 127.056 14.5441 115.242 19.7289 103.173Z" fill="white"/>
<path d="M67.1385 102.95C67.0395 102.82 67.1339 102.8 19.7281 102.873C19.4574 102.873 19.6008 102.815 17.1349 108.44H17.0092C16.941 108.439 16.8748 108.462 16.8217 108.505C16.7686 108.548 16.7319 108.608 16.7178 108.674C16.7035 108.741 16.7124 108.81 16.7429 108.871C16.7735 108.931 16.8239 108.98 16.8857 109.008C15.9607 111.116 15.0288 113.222 14.0902 115.324H13.9491C13.898 115.325 13.8479 115.339 13.8037 115.364C13.7594 115.39 13.7225 115.426 13.6963 115.47C13.6702 115.514 13.6557 115.564 13.6543 115.615C13.6529 115.666 13.6647 115.717 13.6884 115.762C13.7205 115.823 13.7725 115.87 13.8356 115.897L10.672 122.972H10.4619C10.3882 122.973 10.3174 123.001 10.263 123.05C10.2087 123.1 10.1746 123.168 10.1675 123.242C10.1608 123.315 10.1816 123.389 10.226 123.448C10.2703 123.507 10.335 123.547 10.4075 123.561C9.31485 126.003 8.20996 128.476 7.11044 130.959C6.86662 130.959 6.51085 130.92 6.51391 131.266C6.51443 131.307 6.52356 131.349 6.54071 131.387C6.55786 131.424 6.58267 131.459 6.61359 131.487C6.64511 131.514 6.68192 131.535 6.72175 131.547C6.76157 131.56 6.80357 131.564 6.84515 131.56C3.43618 139.26 3.46072 139.138 3.588 139.331C3.72755 139.544 3.5926 139.484 58.6597 139.21C59.0285 139.21 58.8951 139.233 60.6395 130.97L60.9577 130.965C60.9968 130.965 61.0355 130.957 61.0714 130.941C61.1074 130.926 61.1399 130.903 61.1672 130.875C61.1944 130.847 61.2158 130.814 61.2301 130.777C61.2444 130.741 61.2514 130.702 61.2506 130.663C61.2501 130.624 61.2419 130.585 61.2265 130.55C61.211 130.514 61.1887 130.481 61.1607 130.454C61.1327 130.427 61.0996 130.405 61.0633 130.391C61.0271 130.377 60.9883 130.37 60.9493 130.37H60.766C61.2774 127.947 61.8003 125.511 62.3348 123.061H62.656C62.7349 123.061 62.8106 123.03 62.8664 122.974C62.9222 122.919 62.9535 122.843 62.9535 122.764C62.9535 122.685 62.9222 122.609 62.8664 122.554C62.8106 122.498 62.7349 122.466 62.656 122.466H62.4682C62.9557 120.253 63.4566 118.043 63.971 115.836C64.1872 115.836 64.5698 115.885 64.5691 115.537C64.5685 115.459 64.5369 115.383 64.4812 115.328C64.4255 115.272 64.3502 115.241 64.2716 115.241H64.1106C64.5936 113.196 65.0935 111.156 65.6111 109.12H65.8864C65.9653 109.12 66.0409 109.089 66.0967 109.033C66.1525 108.978 66.1839 108.902 66.1839 108.823C66.1839 108.744 66.1525 108.668 66.0967 108.613C66.0409 108.557 65.9653 108.525 65.8864 108.525H65.7644C67.1929 102.966 67.2979 103.161 67.1385 102.95ZM37.5718 138.688L39.8039 131.231L50.4732 131.105L48.656 138.688H37.5718ZM25.7984 138.742C26.6909 136.276 27.5895 133.829 28.4935 131.352L39.1813 131.239L36.95 138.742H25.7984ZM14.1599 138.797C15.1874 136.344 16.2179 133.916 17.2499 131.463L27.8579 131.358C26.9547 133.834 26.056 136.332 25.1643 138.796L14.1599 138.797ZM38.1806 103.488C37.5565 105.15 36.9324 106.8 36.309 108.467H26.947L29.0287 103.488H38.1806ZM47.7259 103.47C47.1892 105.143 46.6525 106.804 46.1272 108.485H36.9439C37.5672 106.816 38.1921 105.133 38.817 103.47H47.7259ZM31.641 122.769L34.1836 115.879H43.8324C43.1371 118.141 42.4471 120.405 41.7621 122.67L31.641 122.769ZM41.5781 123.268L39.3607 130.642L28.7128 130.754L31.4202 123.367L41.5781 123.268ZM34.4052 115.284C35.1719 113.209 35.9479 111.151 36.7215 109.08H45.9401C45.293 111.139 44.652 113.22 44.0156 115.284H34.4052ZM36.0867 109.062C35.313 111.132 34.5401 113.225 33.7695 115.301H24.0633L26.697 109.062H36.0867ZM33.5487 115.897L31.0046 122.775L20.8713 122.874L23.8118 115.897H33.5487ZM30.7884 123.373L28.081 130.761L17.5068 130.865L20.6236 123.472L30.7884 123.373ZM39.9894 130.635L42.2068 123.262L52.4046 123.162C51.8019 125.62 51.2085 128.069 50.6227 130.508L39.9894 130.635ZM42.387 122.66C43.0735 120.392 43.7635 118.125 44.4573 115.859H54.2218C53.6536 118.096 53.0947 120.33 52.5465 122.562L42.387 122.66ZM44.6436 115.263C45.28 113.198 45.9217 111.152 46.5689 109.093H55.9738C55.4287 111.147 54.8948 113.203 54.3721 115.263H44.6436ZM46.756 108.498C47.2858 106.816 47.8194 105.124 48.3569 103.449H57.5196C57.0479 105.129 56.586 106.812 56.1341 108.498H46.756ZM19.9305 103.501H28.3831C27.6931 105.155 26.9968 106.793 26.3022 108.447H17.7844C18.5043 106.803 19.2179 105.155 19.9251 103.505L19.9305 103.501ZM17.5283 109.042H26.0522L23.4169 115.314H14.7427C15.6712 113.232 16.6005 111.148 17.5229 109.046L17.5283 109.042ZM14.482 115.91H23.1654L20.2234 122.877L11.3291 122.964L14.482 115.91ZM11.0646 123.562L19.9765 123.475L16.8604 130.868L7.76831 130.954C8.86323 128.476 9.96888 126.005 11.0592 123.566L11.0646 123.562ZM7.49688 131.555L16.6036 131.469C15.5715 133.922 14.5418 136.395 13.5151 138.847H4.28881C5.34232 136.416 6.4173 133.992 7.49688 131.555ZM58.4159 138.638H49.2701L51.0881 131.098L60.0292 130.979L58.4159 138.638ZM60.1549 130.382L51.2315 130.5C51.8188 128.065 52.413 125.616 53.0142 123.156L61.7244 123.071C61.1877 125.519 60.6648 127.956 60.1549 130.382ZM61.8533 122.474L53.1606 122.559C53.7096 120.326 54.2678 118.081 54.836 115.846H63.3545C62.8393 118.052 62.3389 120.261 61.8533 122.474ZM63.4949 115.251H54.9878C55.5122 113.196 56.0459 111.158 56.5903 109.117H64.9931C64.4739 111.156 63.9745 113.201 63.4949 115.251ZM65.1457 108.519H56.7498C57.2023 106.822 57.6649 105.127 58.1376 103.436H66.5097C66.0376 105.125 65.5829 106.82 65.1457 108.519Z" fill="#A1FF5D"/>
<path d="M149.517 138.828H96.6497C92.8252 126.419 89.1701 114.009 85.4307 101.6H133.538C138.977 113.925 144.247 126.419 149.517 138.828Z" fill="white"/>
<path d="M149.517 139.126C96.3643 139.126 96.4678 139.25 96.3651 138.916C93.8148 130.64 86.3912 105.82 85.1452 101.686C84.9719 101.112 82.6464 101.303 133.538 101.303C133.595 101.303 133.652 101.32 133.7 101.351C133.748 101.382 133.787 101.427 133.81 101.48C138.548 112.214 149.791 138.712 149.791 138.712C149.81 138.757 149.818 138.806 149.813 138.855C149.809 138.904 149.792 138.951 149.765 138.992C149.738 139.033 149.701 139.067 149.658 139.09C149.614 139.113 149.566 139.126 149.517 139.126ZM96.8696 138.531H149.068C149.068 138.531 138.053 112.572 133.344 101.898H85.8307C87.0376 105.905 94.3416 130.325 96.8696 138.531Z" fill="#A1FF5D"/>
<path d="M130.054 118.003H131.668L133.709 122.848H132.093C131.244 120.81 130.819 119.874 130.054 118.003Z" fill="#4B1010"/>
<path d="M126.739 117.835H128.355C128.95 119.279 129.29 120.044 129.889 121.574H128.189C127.673 120.044 127.334 119.279 126.739 117.835Z" fill="#A1FF5D"/>
<path d="M121.044 112.224H122.659C124.018 115.709 124.783 117.579 126.313 121.489H124.613C123.169 117.494 122.403 115.709 121.044 112.224Z" fill="#4B1010"/>
<path d="M117.56 112.055H119.174C119.941 114.094 120.364 115.198 121.214 117.409H119.514C118.75 115.199 118.324 114.092 117.56 112.055Z" fill="#A1FF5D"/>
<path d="M115.774 117.24H117.474L117.984 118.599H116.284L115.774 117.24Z" fill="#A1FF5D"/>
<path d="M112.969 118.515H114.669L115.604 121.234H113.904C113.555 120.341 113.243 119.434 112.969 118.515Z" fill="#A1FF5D"/>
<path d="M108.975 116.05H110.674C111.355 118.004 111.694 119.025 112.459 121.149H110.76L108.975 116.05Z" fill="#4B1010"/>
<path d="M101.58 103.725H103.195C104.725 108.06 105.49 110.524 107.275 115.964H105.659C103.875 110.524 103.11 108.06 101.58 103.725Z" fill="#4B1010"/>
<path d="M98.6045 103.725H100.138C102.773 111.799 105.408 119.874 108.042 127.864H106.343C103.789 119.874 101.154 111.799 98.6045 103.725Z" fill="#A1FF5D"/>
<path d="M105.83 135.258H107.529C106.51 132.199 105.996 130.668 105.153 127.864H103.453C104.3 130.668 104.81 132.199 105.83 135.258Z" fill="#A1FF5D"/>
<path d="M9.10467 134.706C9.0476 134.706 8.99171 134.69 8.94365 134.659C8.8956 134.628 8.85742 134.584 8.83365 134.533C8.80989 134.481 8.80156 134.423 8.80964 134.367C8.81772 134.31 8.84189 134.257 8.87925 134.214C11.0514 131.705 21.1035 120.219 21.3481 120.052C27.2644 116.08 30.1864 114.241 35.7201 110.783C36.0099 110.603 35.7515 110.722 44.1436 115.13C58.2425 109.936 54.1044 111.053 60.5604 109.977C60.637 109.966 60.7149 109.985 60.7776 110.03C60.8403 110.076 60.8828 110.144 60.8962 110.22C60.9095 110.296 60.8927 110.375 60.8492 110.439C60.8057 110.503 60.739 110.547 60.6632 110.563C54.2608 111.688 58.4335 110.5 44.2256 115.734C44.0278 115.806 44.1558 115.856 35.8887 111.379C30.4655 114.769 27.5458 116.608 21.7108 120.525C9.10161 134.684 9.38837 134.706 9.10467 134.706Z" fill="#A1FF5D"/>
<path d="M51.1769 56.8926C47.6943 60.1896 40.4578 53.755 41.233 47.9684C41.9069 42.9347 47.4436 41.0101 49.9026 36.9188C53.5155 30.9005 50.0383 24.0665 51.0075 17.1144C51.3354 14.9999 52.1022 12.9774 53.2585 11.177C54.4149 9.37661 55.9353 7.83815 57.7219 6.66054C65.006 1.93967 75.8026 4.75134 78.9708 13.375C79.4738 14.3809 78.2041 14.3342 77.951 16.0946C78.546 12.0148 71.4567 11.1169 69.1963 12.78C68.0865 13.5989 67.1605 14.6414 66.4782 15.8401C62.524 21.639 64.628 25.5778 64.6932 29.0987C64.7559 31.791 64.048 34.4451 62.6529 36.7485C58.6742 43.2483 54.408 44.4827 50.3274 48.305C48.34 50.1682 46.9613 53.4982 48.5424 55.8697C48.8504 56.2597 49.2571 56.5601 49.7203 56.74C50.1836 56.9198 50.6865 56.9725 51.1769 56.8926Z" fill="#A1FF5D"/>
<path d="M41.6352 52.2414C39.749 48.2029 41.4666 44.7878 44.772 41.7975C46.5585 40.1812 48.4815 38.762 49.6447 36.7684C53.8519 29.9566 48.1028 21.1858 51.9265 12.9938C57.4763 0.70591 74.9206 1.49259 79.2489 13.2722C79.8324 14.4085 78.4775 14.499 78.246 16.1275C78.2421 16.1678 78.2302 16.2068 78.211 16.2424C78.1917 16.278 78.1656 16.3093 78.134 16.3346C78.102 16.3593 78.0654 16.3775 78.0263 16.388C77.9872 16.3986 77.9464 16.4012 77.9063 16.3959C77.8662 16.3902 77.8276 16.3764 77.793 16.3553C77.7584 16.3342 77.7285 16.3062 77.705 16.2731C77.6816 16.24 77.6652 16.2025 77.6569 16.1628C77.6485 16.1231 77.6483 16.0822 77.6563 16.0424C78.1716 12.3337 71.5331 11.4987 69.3662 13.023C66.5991 15.3562 64.8211 18.653 64.3916 22.247C64.226 24.5625 64.9022 26.7846 64.9881 29.0879C64.9889 39.8707 54.8586 44.4666 50.5295 48.525C48.638 50.2985 47.3199 53.5042 48.789 55.7071C49.0651 56.0494 49.427 56.3122 49.8378 56.4689C50.2487 56.6255 50.6937 56.6704 51.1276 56.5988C51.1905 56.5884 51.2551 56.5984 51.3119 56.6274C51.3687 56.6564 51.4147 56.7029 51.443 56.76C51.4714 56.8172 51.4806 56.8819 51.4694 56.9447C51.4581 57.0075 51.427 57.065 51.3806 57.1087C48.1388 60.1803 42.9694 55.6274 41.6352 52.2414ZM52.4679 13.2423C48.6824 21.3529 54.5718 29.9252 50.1554 37.0751C48.9424 39.1538 46.9312 40.6459 45.1715 42.2392C42.0777 45.0378 40.3946 48.1784 42.1812 52.0068C43.2692 54.7671 47.4058 58.7542 50.2719 57.1915C46.6774 56.6471 46.7272 51.2745 50.1232 48.091C54.3334 44.143 64.3931 39.6085 64.3931 29.0986C64.308 26.8106 63.6264 24.6177 63.7989 22.1925C64.2472 18.4304 66.1115 14.9804 69.0128 12.5437C71.2547 10.9642 77.2124 11.5884 78.1555 14.7213C78.4714 14.2245 78.6723 14.1846 78.7735 13.8779C78.9314 13.404 76.4855 7.03312 69.6308 5.25043C66.2872 4.2828 62.7064 4.55922 59.551 6.02852C56.3955 7.49782 53.8793 10.0605 52.4679 13.2423Z" fill="#4B1010"/>
<path d="M55.4272 69.0471C61.0294 74.0156 67.7749 77.5191 75.0613 79.2449C76.5895 79.5922 78.7157 79.6697 80.0759 80.2647C81.4361 80.8597 81.0834 81.1081 82.3577 81.7882C92.5639 80.9448 94.7261 73.5004 94.7645 73.4191C91.3616 69.5225 90.1218 69.3439 86.7182 69.0433C84.0768 68.8094 79.6986 71.0023 74.2578 67.9699C75.0504 66.3021 75.9733 64.6994 77.0181 63.1769C73.6741 61.8118 70.8821 59.3687 69.0853 56.2355C68.5486 57.2722 67.8708 59.518 67.1922 60.5493C66.3687 61.7991 65.7568 61.783 64.2663 60.2924C61.22 57.1853 57.8486 54.4145 54.2104 52.0276C51.3358 50.5317 49.3798 49.1991 45.4073 51.2233C43.4627 52.2557 41.5859 53.4113 39.7886 54.6829C46.7844 55.6819 48.426 62.9499 55.4272 69.0471Z" fill="white"/>
<path d="M94.9856 73.7442C91.8036 79.4043 87.7705 81.5428 82.2177 81.713C81.1083 81.0904 81.3835 80.8382 80.0762 80.2662C78.3825 79.5255 67.178 79.3729 55.4275 69.0471C48.2078 62.8127 46.3324 56.0921 39.8725 54.5394C28.9471 61.7706 7.35084 76.6563 4.68485 89.4457C3.83529 93.5255 4.68485 98.2004 7.82852 100.92C11.2444 103.733 16.0327 104.65 20.8326 105.34C30.0443 106.665 37.067 106.275 46.3316 105.595C50.4115 105.255 55.9359 104.235 60.1009 105.085C61.0624 102.978 61.3537 98.7433 61.3537 98.7433H104.686C104.686 98.7433 98.6737 79.7984 94.9856 73.7442Z" fill="#A1FF5D"/>
<path d="M105.255 98.6804C101.587 89.6381 102.648 89.9026 98.8793 80.8289C97.0491 76.4201 95.1875 71.677 90.8285 69.5416C86.3576 67.3495 81.7333 70.2762 77.188 68.8454C77.1128 68.8217 77.0312 68.8289 76.9613 68.8654C76.8913 68.9018 76.8387 68.9646 76.815 69.0398C76.7913 69.115 76.7985 69.1966 76.8349 69.2666C76.8714 69.3365 76.9341 69.3891 77.0094 69.4128C83.0958 71.3297 88.9346 65.875 94.5595 73.5571C92.7247 77.8639 88.8633 80.5345 83.0751 81.5014C80.3509 82.0458 79.0114 81.3925 79.0114 82.0481C79.0114 82.127 79.0428 82.203 79.0988 82.2582C79.1263 82.2859 79.159 82.3079 79.195 82.3229C79.2311 82.3379 79.2698 82.3456 79.3088 82.3456C85.8362 82.3456 92.2178 80.1067 94.959 74.1268C96.2025 76.1341 97.2486 78.2572 98.0827 80.4663C102.355 90.7606 100.843 89.3951 104.702 98.9043C104.732 98.9774 104.79 99.0358 104.862 99.0668C104.898 99.0826 104.937 99.0909 104.976 99.0913C105.015 99.0917 105.054 99.0841 105.09 99.0691C105.163 99.0393 105.222 98.9817 105.253 98.9088C105.284 98.836 105.284 98.7538 105.255 98.6804Z" fill="#4B1010"/>
<path d="M66.222 49.1576C64.1395 30.7924 83.7737 11.731 95.886 19.8348C97.3063 20.828 98.5672 22.0315 99.6254 23.404C100.993 24.8228 102.113 26.4605 102.94 28.2491C104.191 31.0278 103.436 32.6648 102.686 35.3883C101.819 38.532 101.499 41.934 100.645 45.0785C98.6141 52.5604 94.0849 60.5791 86.1958 63.012C77.0102 65.8451 67.2817 58.5027 66.222 49.1576Z" fill="white"/>
<path d="M102.685 32.924C102.532 40.2479 99.6108 49.8522 94.6959 56.2975C87.5122 65.7163 76.5799 65.1412 70.5571 57.8272C66.8208 53.2888 65.1684 47.9461 66.7318 41.0837C66.8085 40.7417 66.2219 40.573 66.1368 40.9135C65.5972 43.5414 65.4826 46.2388 65.7971 48.903C66.2068 51.5282 67.1786 54.034 68.646 56.249C70.1135 58.464 72.042 60.336 74.2996 61.7369C80.9381 65.6005 88.9192 63.6913 93.6784 58.2527C99.4689 51.6349 102.567 42.0107 103.198 34.114C103.198 33.134 103.533 32.4984 102.943 32.4984C102.813 32.6087 102.723 32.758 102.685 32.924Z" fill="#4B1010"/>
<path d="M102.854 39.2984C101.41 49.0729 95.9489 62.0095 86.4504 64.9669C84.4766 65.5742 82.3971 65.7593 80.3471 65.5103C78.297 65.2613 76.3223 64.5837 74.5513 63.5215C75.147 59.5398 76.6135 55.7385 78.8463 52.3882C81.079 49.038 84.023 46.2214 87.4687 44.1389C96.1659 38.8537 102.854 39.2984 102.854 39.2984Z" fill="white"/>
<path d="M102.6 39.2136C101.204 48.9789 95.8019 61.8327 86.3655 64.7118C84.4294 65.2839 82.3962 65.4509 80.3928 65.2023C78.3893 64.9538 76.4585 64.2951 74.7209 63.2673C74.6533 63.2269 74.5728 63.214 74.496 63.2314C74.4191 63.2487 74.3519 63.2949 74.3083 63.3605C74.2646 63.426 74.2479 63.5058 74.2614 63.5834C74.275 63.661 74.3179 63.7304 74.3812 63.7772C82.9688 68.7863 94.7768 65.7316 100.9 48.4782C101.939 45.5223 102.707 42.4781 103.195 39.383C103.195 39.0434 102.6 38.8739 102.6 39.2136Z" fill="#4B1010"/>
<path d="M70.8211 50.4963C71.5532 50.4963 72.2782 50.3521 72.9546 50.0719C73.631 49.7917 74.2456 49.3811 74.7633 48.8634C75.281 48.3457 75.6916 47.7311 75.9718 47.0547C76.252 46.3783 76.3962 45.6533 76.3962 44.9212C76.3962 44.1891 76.252 43.4641 75.9718 42.7877C75.6916 42.1114 75.281 41.4968 74.7633 40.9791C74.2456 40.4614 73.631 40.0507 72.9546 39.7706C72.2782 39.4904 71.5532 39.3462 70.8211 39.3462C69.3425 39.3462 67.9245 39.9336 66.879 40.9791C65.8335 42.0246 65.2461 43.4426 65.2461 44.9212C65.2461 46.3998 65.8335 47.8178 66.879 48.8634C67.9245 49.9089 69.3425 50.4963 70.8211 50.4963Z" fill="#A1FF5D"/>
<path d="M96.3328 49.0717C95.5888 49.0716 94.852 49.218 94.1646 49.5026C93.4772 49.7872 92.8526 50.2045 92.3264 50.7305C91.8003 51.2565 91.3829 51.881 91.0981 52.5684C90.8132 53.2557 90.6666 53.9924 90.6665 54.7364C90.6664 55.4804 90.8128 56.2171 91.0975 56.9045C91.3821 57.592 91.7993 58.2166 92.3253 58.7427C92.8514 59.2689 93.4759 59.6863 94.1632 59.9711C94.8505 60.2559 95.5872 60.4026 96.3312 60.4027C97.8338 60.4029 99.275 59.8062 100.338 58.7438C101.4 57.6815 101.997 56.2405 101.998 54.7379C101.998 53.2353 101.401 51.7942 100.339 50.7316C99.2763 49.669 97.8354 49.0719 96.3328 49.0717Z" fill="#A1FF5D"/>
<path d="M61.4619 38.1073C61.4587 39.3956 61.8471 40.6543 62.5756 41.7168C63.3041 42.7792 64.3383 43.5952 65.541 44.0565L67.1558 32.6673C63.0767 30.8838 61.4619 35.6438 61.4619 38.1073Z" fill="white"/>
<path d="M88.7098 52.1932C88.1686 49.3993 87.9436 46.5534 88.0388 43.7091C88.2244 42.96 90.2425 41.346 90.7731 40.9335C90.8039 40.9094 90.8392 40.8916 90.877 40.8812C90.9147 40.8709 90.9542 40.868 90.993 40.873C91.0319 40.8779 91.0694 40.8904 91.1033 40.9099C91.1373 40.9294 91.1671 40.9554 91.1909 40.9864C91.2392 41.0488 91.2607 41.1277 91.2508 41.2059C91.2409 41.2841 91.2003 41.3552 91.138 41.4035C90.7048 41.7409 88.7527 43.3028 88.6078 43.8755C88.5505 46.6242 88.7792 49.3714 89.2902 52.0728C89.2953 52.1451 89.2741 52.2168 89.2304 52.2745C89.1867 52.3323 89.1236 52.3723 89.0526 52.387C88.9817 52.4017 88.9079 52.3902 88.8448 52.3545C88.7817 52.3189 88.7337 52.2616 88.7098 52.1932Z" fill="#4B1010"/>
<path d="M80.756 29.269C83.9641 27.665 90.736 27.3836 94.95 26.4642C96.3954 28.3343 97.6781 30.1983 98.9448 32.1589C100.314 34.2782 101.772 36.836 101.58 39.4683C100.949 48.1326 96.9904 48.3626 96.9904 55.6176C96.735 59.8677 95.4569 63.6071 92.4849 66.7523C95.2313 64.9001 97.4323 62.347 98.8597 59.3578C100.271 56.3214 99.6264 52.73 100.985 49.6684C102.264 46.78 104.177 43.9653 104.896 40.8285C106.026 35.8845 107.184 30.9704 106.086 25.8692C103.522 13.9731 86.5495 7.10919 75.9094 12.3553C68.4106 16.0533 62.8946 24.2499 62.2267 31.5639C62.157 32.3306 62.3969 34.1141 61.9722 34.7934C62.3842 33.9023 63.0303 33.1397 63.8415 32.5867C64.2561 32.3208 64.7542 32.2171 65.2405 32.2956C65.7268 32.3742 66.167 32.6293 66.4768 33.0123C67.2436 34.2866 66.0681 36.8399 65.7967 38.1119C64.8528 42.5307 63.1131 46.6443 65.2017 52.3911C65.0964 47.4041 66.5341 42.5063 69.3183 38.3676C72.1024 34.2288 76.0971 31.0511 80.756 29.269Z" fill="#A1FF5D"/>
<path d="M106.375 25.8071C103.805 13.8105 86.7643 6.85763 75.776 12.0899C66.3542 16.8974 61.7851 26.8598 61.9193 32.5698C61.9791 35.133 61.1641 36.1858 61.1641 38.1088C61.1662 39.2214 61.4452 40.3159 61.9757 41.2939C62.5063 42.2718 63.2719 43.1023 64.2035 43.7107C63.6391 46.6473 63.8876 49.6836 64.9219 52.4899C64.9467 52.5559 64.994 52.6109 65.0555 52.6453C65.117 52.6797 65.1887 52.6912 65.2579 52.6778C65.327 52.6643 65.3892 52.6269 65.4334 52.572C65.4776 52.5172 65.5009 52.4484 65.4993 52.378C65.3469 47.4427 66.7479 42.5841 69.5045 38.4876C72.261 34.3911 76.2342 31.2634 80.8634 29.5457C86.4338 27.4939 89.4954 27.9264 94.8289 26.7946C96.3716 28.8035 97.7027 30.7978 98.6941 32.3191C100.133 34.5664 101.442 36.9863 101.283 39.4445C100.59 47.9991 96.6914 48.4055 96.6929 55.5999C96.423 60.1053 94.9762 63.686 92.2688 66.5475C92.2329 66.5877 92.2087 66.6369 92.1985 66.6898C92.1883 66.7426 92.1925 66.7973 92.2108 66.848C92.2291 66.8986 92.2608 66.9434 92.3024 66.9776C92.3441 67.0117 92.3942 67.034 92.4474 67.042C92.5188 67.0525 92.5916 67.0367 92.6521 66.9976C95.4249 65.0928 97.6568 62.5021 99.1304 59.4781C100.494 56.4111 99.9332 52.7621 101.256 49.7879C102.531 46.8965 104.495 44.0787 105.182 40.8982C106.516 35.3792 107.45 30.7641 106.375 25.8071ZM66.2215 33.1617C66.9806 34.4261 65.5836 36.7432 64.3254 43.0743C58.7189 39.104 63.6767 30.3324 66.2215 33.1617ZM104.603 40.7656C103.936 43.8533 101.986 46.6619 100.713 49.5471C98.6082 54.2826 101.259 58.5664 94.3812 64.8645C96.1754 62.1042 97.1798 58.9068 97.2871 55.6175C97.1823 53.1538 97.8213 50.7156 99.1212 48.6201C100.673 45.804 101.612 42.6918 101.877 39.4874C102.046 36.8536 100.688 34.3318 99.1933 31.9963C98.1697 30.426 96.7888 28.358 95.1847 26.2824C94.9547 25.988 95.1732 26.2932 89.6128 27.0124C87.4735 27.2884 82.873 27.8765 80.6349 28.9967C76.2342 30.6768 72.411 33.5898 69.6233 37.3868C66.8355 41.1839 65.2014 45.704 64.9165 50.4059C63.8393 45.7939 65.0591 42.684 66.0835 38.1671C66.3458 36.8559 67.5864 34.285 66.6969 32.8113C65.6304 31.6121 64.0539 31.5515 62.5212 33.3726C62.5281 32.8359 62.4829 32.0139 62.5212 31.5853C63.1438 24.729 68.1185 16.6636 76.0367 12.6236C86.6309 7.57914 103.292 14.2683 105.792 25.932C106.842 30.7664 105.919 35.3148 104.603 40.7656Z" fill="#4B1010"/>
<path d="M102.175 35.0486C102.05 39.4445 100.759 43.7281 98.4351 47.4615C96.5182 50.4871 95.8005 52.4377 95.8005 56.3014C95.4601 61.5713 93.7602 66.2461 89.5132 70.0707C93.2702 67.9097 96.3351 64.7247 98.35 60.8873C100.287 57.0957 99.4549 52.6425 101.325 48.903C103.11 45.333 105.794 41.9471 106.849 37.9385C107.117 36.9218 107.36 35.899 107.616 34.8784C105.83 35.0486 104.045 35.0486 102.175 35.0486Z" fill="#A1FF5D"/>
<path d="M89.5112 70.3644C89.4662 70.3644 89.4218 70.3541 89.3814 70.3345C89.3409 70.3148 89.3054 70.2862 89.2776 70.2509C89.2498 70.2155 89.2303 70.1743 89.2207 70.1304C89.2111 70.0864 89.2116 70.0408 89.2222 69.9971C89.236 69.9386 89.2673 69.8857 89.3119 69.8453C93.1625 66.3804 95.13 62.0689 95.5034 56.2784C95.3692 53.0676 96.3139 49.9043 98.187 47.2929C100.448 43.5961 101.719 39.3793 101.878 35.0487C101.879 34.9701 101.91 34.8948 101.965 34.8386C102.021 34.7829 102.096 34.7515 102.175 34.7512C107.829 34.7512 107.63 34.4407 107.84 34.6845C107.983 34.8516 108.001 34.7328 107.138 38.0106C106.065 42.0821 103.376 45.4665 101.591 49.0357C99.7504 52.71 100.517 57.1303 98.6171 61.0177C95.439 66.9792 89.9322 70.3644 89.5112 70.3644ZM102.473 35.347C102.473 38.5152 101.246 43.3556 98.6907 47.6149C96.8715 50.1351 95.9579 53.1964 96.0984 56.3014C95.7832 61.1864 94.3694 65.0424 91.6919 68.2451C94.3378 66.2357 96.5194 63.6796 98.0881 60.7509C99.9221 56.9984 99.1615 52.5666 101.059 48.7743C102.853 45.1866 105.473 41.8076 106.563 37.8634L107.225 35.2151C105.66 35.3385 104.105 35.347 102.473 35.347Z" fill="#4B1010"/>
<path d="M85.2512 58.3648C82.1305 57.3244 78.3727 55.7679 77.0033 52.9424C76.9774 52.8893 76.9679 52.8297 76.9759 52.7712C76.984 52.7127 77.0093 52.658 77.0486 52.6139C77.0879 52.5698 77.1394 52.5384 77.1966 52.5238C77.2538 52.5091 77.3141 52.5117 77.3698 52.5314C77.4444 52.5575 77.5056 52.6121 77.54 52.6832C78.8128 55.3078 82.4311 56.7968 85.4414 57.8005C85.5162 57.8257 85.5779 57.8796 85.613 57.9504C85.6481 58.0211 85.6537 58.1029 85.6284 58.1778C85.6032 58.2526 85.5493 58.3143 85.4786 58.3494C85.4078 58.3845 85.326 58.3901 85.2512 58.3648Z" fill="#4B1010"/>
<path d="M87.2161 35.5163C84.4042 34.7423 81.4359 34.7388 78.6223 35.5063C78.5668 35.5201 78.5085 35.5176 78.4543 35.4992C78.4002 35.4808 78.3524 35.4473 78.3168 35.4026C78.2811 35.3578 78.259 35.3038 78.2531 35.2469C78.2472 35.1901 78.2577 35.1327 78.2834 35.0816C78.3188 35.0133 78.3793 34.9613 78.4521 34.9367C81.3477 34.1567 84.3978 34.1549 87.2943 34.9313C87.363 34.9513 87.4223 34.9953 87.4615 35.0551C87.5007 35.115 87.5173 35.1869 87.5082 35.2579C87.4982 35.3287 87.4633 35.3936 87.4097 35.4409C87.3562 35.4883 87.2875 35.515 87.2161 35.5163Z" fill="#4B1010"/>
<path d="M101.41 40.6159C100.909 40.6159 101.337 40.0385 100.73 39.0264C100.312 38.2179 99.7262 37.5083 99.011 36.9455C98.2958 36.3827 97.4683 35.9798 96.5843 35.7639C96.546 35.7554 96.5099 35.7394 96.4779 35.7168C96.4459 35.6943 96.4187 35.6656 96.3979 35.6324C96.377 35.5992 96.363 35.5623 96.3566 35.5236C96.3501 35.485 96.3514 35.4455 96.3604 35.4074C96.3688 35.3692 96.3847 35.333 96.4072 35.301C96.4297 35.269 96.4583 35.2418 96.4914 35.221C96.5245 35.2002 96.5614 35.1861 96.6 35.1797C96.6386 35.1732 96.6781 35.1745 96.7161 35.1835C100.719 36.0928 102.464 40.6159 101.41 40.6159Z" fill="#4B1010"/>
<path d="M83.5613 40.1061C83.2132 40.1061 81.6299 38.0359 78.1603 38.4883C78.0821 38.4984 78.0031 38.4771 77.9406 38.429C77.8782 38.3809 77.8374 38.31 77.8272 38.2318C77.817 38.1536 77.8383 38.0746 77.8864 38.0121C77.9345 37.9496 78.0055 37.9088 78.0837 37.8986C79.0952 37.7507 80.1268 37.825 81.1067 38.1163C82.0866 38.4076 82.9912 38.909 83.7576 39.5855C83.8029 39.6254 83.835 39.6782 83.8495 39.7368C83.8641 39.7954 83.8605 39.857 83.8392 39.9136C83.8179 39.9701 83.7799 40.0187 83.7303 40.0531C83.6806 40.0875 83.6217 40.106 83.5613 40.1061Z" fill="#4B1010"/>
<path d="M101.135 46.3023C101.097 45.5677 99.5398 46.6642 96.7189 44.9098C95.7635 43.6462 94.0123 45.4887 93.6519 47.0307C93.2992 47.9699 94.1886 49.3578 95.3449 48.5741C95.8198 48.2626 96.2157 47.8448 96.5014 47.3539C96.7871 46.863 96.9547 46.3124 96.9911 45.7456C98.0737 46.313 99.2759 46.6143 100.498 46.6243C100.801 46.6243 101.151 46.6412 101.135 46.3023Z" fill="#4B1010"/>
<path d="M77.781 52.6854C77.4743 52.6854 76.0758 51.5866 75.3788 49.7717C75.3504 49.6981 75.3525 49.6162 75.3844 49.5441C75.4164 49.472 75.4758 49.4156 75.5494 49.3872C75.623 49.3588 75.7049 49.3609 75.777 49.3929C75.8491 49.4249 75.9055 49.4842 75.9339 49.5578C76.3156 50.6088 77.0198 51.5121 77.9459 52.1387C77.9994 52.1741 78.0402 52.2257 78.0623 52.286C78.0844 52.3463 78.0866 52.4121 78.0685 52.4738C78.0496 52.5352 78.0115 52.5889 77.9597 52.627C77.9079 52.6651 77.8453 52.6856 77.781 52.6854Z" fill="#4B1010"/>
<path d="M126.494 54.2657C124.715 41.0945 113.87 32.9102 100.853 34.6369C77.7842 37.6955 63.1409 67.6401 76.9968 84.5247L59.5149 107.454C59.3988 107.598 59.3131 107.763 59.263 107.94C59.2129 108.118 59.1995 108.304 59.2235 108.486C59.324 109.262 59.5739 109.197 63.2359 112.046C63.3804 112.16 63.5461 112.245 63.7234 112.294C63.9007 112.344 64.086 112.358 64.2688 112.335C64.4517 112.313 64.6282 112.254 64.7878 112.162C64.9473 112.071 65.0869 111.949 65.1996 111.803L82.4146 89.2218C101.7 100.86 129.833 78.975 126.494 54.2657ZM120.808 56.2133C121.717 62.7858 119.666 69.9381 115.181 75.842C107.074 86.5137 93.2718 89.7555 84.4128 83.0702C75.04 75.908 75.6504 61.5376 83.3033 51.5415C95.7683 35.2642 118.304 38.0881 120.808 56.2133Z" fill="#4B1010"/>
<path d="M102.189 81.1679C115.078 77.9897 120.849 63.9536 116.597 51.3782C116.572 51.3035 116.578 51.2218 116.613 51.1511C116.648 51.0804 116.709 51.0265 116.784 51.0013C116.859 50.9761 116.941 50.9816 117.011 51.0166C117.082 51.0516 117.136 51.1133 117.161 51.188C121.525 64.0947 115.56 78.4843 102.331 81.7445C102.293 81.754 102.254 81.7559 102.215 81.7501C102.177 81.7442 102.14 81.7308 102.106 81.7106C102.073 81.6903 102.044 81.6637 102.021 81.6321C101.997 81.6006 101.981 81.5648 101.972 81.5268C101.953 81.4503 101.966 81.3696 102.007 81.3024C102.047 81.2351 102.113 81.1868 102.189 81.1679Z" fill="#4B1010"/>
<path d="M77.7806 96.5858C77.7806 96.3366 77.3382 96.3657 77.1856 96.6709C75.741 98.4551 73.6156 97.4376 72.0859 96.5858C69.6208 95.3107 70.301 92.591 71.8314 90.8911C65.7626 88.2359 64.466 92.4139 61.1076 93.6338C61.3737 95.7546 61.4573 97.8946 61.3568 100.03C61.2759 101.719 60.8982 103.38 60.2412 104.937C60.6468 105.001 61.0179 105.203 61.2917 105.508C62.3828 106.586 63.7157 107.388 65.1794 107.846C66.643 108.304 68.195 108.406 69.706 108.143C72.8044 107.98 73.7697 106.079 74.4721 104.351C77.1112 103.047 76.9885 100.959 76.4365 100.687C78.0405 99.6006 78.5052 97.8885 77.7806 96.5858Z" fill="white"/>
<path d="M78.0678 96.4906C77.9458 95.9539 77.153 96.0535 76.9552 96.4837C75.7445 97.9789 73.9695 97.2911 72.2228 96.3211C70.0966 95.2216 70.4892 92.8271 72.0526 91.0904C72.0838 91.0551 72.1063 91.013 72.1183 90.9675C72.1303 90.9219 72.1314 90.8742 72.1216 90.8282C72.1115 90.7822 72.0908 90.7392 72.0611 90.7028C72.0314 90.6663 71.9936 90.6373 71.9506 90.6181C65.753 87.9091 64.3 92.1063 61.0674 93.3324C61.0935 93.5171 61.1195 93.7157 61.1441 93.9358C64.6389 92.7159 65.6679 88.7549 71.3418 91.0091C69.7225 93.0609 69.6143 95.6418 71.9414 96.8456C73.1682 97.528 75.7246 98.9488 77.4513 96.8034C77.4665 96.7729 77.4913 96.7481 77.5218 96.7329C77.7089 97.0954 77.8065 97.4973 77.8065 97.9052C77.8065 98.3132 77.7089 98.7151 77.5218 99.0776C76.6209 100.803 74.1481 101.473 72.4275 101.473C72.355 101.475 72.2857 101.503 72.2326 101.553C72.1795 101.602 72.1463 101.669 72.1391 101.742C72.132 101.814 72.1514 101.886 72.1938 101.945C72.2361 102.004 72.2985 102.046 72.3693 102.062C73.7838 102.25 75.2172 101.898 76.3847 101.078L76.3916 101.087C77.0004 103.218 73.7026 104.725 71.4729 104.873C71.3997 104.879 71.331 104.911 71.2799 104.963C71.2289 105.016 71.1991 105.086 71.1963 105.159C71.1936 105.232 71.218 105.304 71.265 105.361C71.3119 105.417 71.3781 105.454 71.4507 105.465C72.2967 105.553 73.1491 105.373 73.8874 104.951C73.7341 105.347 73.5915 105.692 73.5432 105.767C73.1058 106.396 72.526 106.913 71.8509 107.275C71.1759 107.637 70.4248 107.835 69.6588 107.852C68.1945 108.104 66.6912 108.004 65.2732 107.56C63.8551 107.116 62.563 106.342 61.5037 105.3C61.2 104.969 60.7997 104.742 60.3597 104.652C60.2792 104.857 60.1964 105.052 60.1128 105.239C60.299 105.248 60.4813 105.296 60.6483 105.379C60.8154 105.462 60.9635 105.578 61.0835 105.721C62.2046 106.827 63.5729 107.651 65.0753 108.124C66.5777 108.597 68.1712 108.706 69.724 108.442C70.5653 108.413 71.3887 108.191 72.13 107.792C72.8713 107.393 73.5105 106.828 73.9979 106.142C74.2924 105.659 74.516 105.137 74.6619 104.591C74.8773 104.482 75.0905 104.361 75.2975 104.233C76.8755 103.313 77.3677 101.591 76.8747 100.737C78.3967 99.5423 78.7755 97.8309 78.0678 96.4906Z" fill="#4B1010"/>
<path d="M77.5554 79.1205C67.8729 78.1521 57.6115 71.933 51.2375 64.1827C48.1253 60.4011 45.1694 55.8451 40.4325 54.4596C42.8094 52.7727 45.3167 50.9371 48.2234 50.7294C55.496 50.2095 59.4379 58.4313 66.4322 61.7276C67.0263 62.9037 67.8854 63.9257 68.9417 64.7133C70.9514 66.1755 72.8652 67.2267 75.2291 66.4983C75.3579 66.4983 75.7206 66.1019 75.7551 66.0252L77.2004 62.7949C77.2246 62.7412 77.2324 62.6815 77.2226 62.6234C77.2127 62.5652 77.1859 62.5114 77.1453 62.4686C77.1047 62.4258 77.0524 62.3961 76.9949 62.3832C76.9373 62.3703 76.8773 62.3748 76.8224 62.3962C76.7858 62.41 76.7523 62.431 76.7239 62.4578C76.6955 62.4847 76.6727 62.5169 76.6567 62.5526L75.821 64.4212C74.1587 65.007 72.3384 64.3644 70.8939 63.3539C69.5258 62.5477 68.4176 61.3662 67.7004 59.9495C68.2812 58.7893 68.7932 57.596 69.2339 56.3757L68.6734 56.1733C67.5999 59.1222 67.6405 58.4352 66.3907 61.0498C59.5621 57.637 55.7912 49.6022 48.1759 50.1374C45.1901 50.3506 42.6882 52.1264 40.2691 53.8431C36.5136 56.5091 7.61867 74.2271 4.47807 89.3007C3.5181 93.9104 4.7909 98.5262 7.72525 101.065C9.17838 102.28 10.8584 103.193 12.6677 103.753C17.913 105.503 27.0734 106.513 32.732 106.513C46.7819 106.513 54.3888 104.12 60.1272 105.292C60.1932 105.306 60.2619 105.297 60.3221 105.266C60.3822 105.236 60.43 105.186 60.4576 105.124C62.2756 101.143 61.4191 97.5907 61.4191 93.4411C61.419 93.3699 61.3933 93.3011 61.3467 93.2472C61.3002 93.1933 61.2358 93.1579 61.1654 93.1474C59.4494 92.8898 57.6452 93.057 55.9791 92.807C44.2179 91.1286 40.2086 87.998 33.0149 87.1039C37.6009 84.898 40.6119 78.2135 46.9644 72.0664C47.006 72.0252 47.0346 71.9727 47.0467 71.9153C47.0587 71.858 47.0536 71.7984 47.032 71.7439C47.0105 71.6894 46.9734 71.6425 46.9254 71.6089C46.8774 71.5753 46.8205 71.5566 46.762 71.555C46.6831 71.5537 46.607 71.5838 46.5504 71.6386C39.6979 78.271 36.9729 85.0782 32.0274 86.8754C31.2721 87.1783 28.0625 86.2367 21.2538 88.3982C21.1813 88.4242 21.1218 88.4773 21.0877 88.5464C21.0536 88.6154 21.0476 88.6949 21.0709 88.7683C21.0942 88.8417 21.1451 88.9032 21.2128 88.9398C21.2805 88.9764 21.3598 88.9854 21.434 88.9648C35.0361 84.6473 39.6971 91.0795 55.8924 93.3959C57.5279 93.6412 59.217 93.5001 60.8257 93.7026C60.8564 97.6283 61.5978 101 60.0114 104.667C53.4312 103.447 38.8622 107.54 20.9547 104.964C16.4992 104.323 11.2469 103.328 8.10939 100.615C5.3399 98.2157 4.14147 93.8237 5.06157 89.4218C7.09959 79.6404 20.8857 68.2465 28.9979 62.3188C35.6687 57.5289 38.1406 56.0636 39.7984 54.9066C44.6028 56.0567 47.6092 60.7086 50.7805 64.5676C58.3775 73.8062 69.7506 79.1359 77.4971 79.7163C77.5362 79.7201 77.5757 79.7162 77.6133 79.7048C77.6509 79.6933 77.6859 79.6746 77.7163 79.6497C77.7466 79.6247 77.7718 79.594 77.7903 79.5593C77.8088 79.5247 77.8203 79.4867 77.8241 79.4476C77.8279 79.4084 77.824 79.3689 77.8126 79.3313C77.8012 79.2937 77.7824 79.2588 77.7575 79.2284C77.7325 79.198 77.7018 79.1729 77.6672 79.1544C77.6325 79.1359 77.5945 79.1244 77.5554 79.1205Z" fill="#4B1010"/>
<path d="M88.4904 98.9226C88.4185 98.9227 88.349 98.8967 88.2949 98.8495C88.2407 98.8022 88.2056 98.7369 88.1959 98.6657C87.8685 96.1729 87.6692 93.6649 87.5986 91.1516C87.599 91.0747 87.6291 91.0009 87.6827 90.9457C87.7364 90.8905 87.8093 90.8582 87.8862 90.8556C87.963 90.8531 88.0379 90.8804 88.0951 90.9318C88.1523 90.9833 88.1873 91.0549 88.1929 91.1317C88.4467 98.4986 89.1605 98.9226 88.4904 98.9226Z" fill="#4B1010"/>
</svg>
